<svg width="23" height="23" viewBox="0 0 23 23" fill="none" xmlns="http://www.w3.org/2000/svg">
<g id="Frame">
<g id="Clip path group">
<mask id="mask0_1_633" style="mask-type:luminance" maskUnits="userSpaceOnUse" x="0" y="0" width="23" height="23">
<g id="clip0_1704_2127">
<path id="Vector" d="M22.1194 0.779785H0.819397V22.0798H22.1194V0.779785Z" fill="white"/>
</g>
</mask>
<g mask="url(#mask0_1_633)">
<g id="Group">
<path id="Vector_2" d="M11.469 2.55298C13.8803 2.55298 14.1812 2.56186 15.1273 2.60623C16.0725 2.6506 16.7159 2.79882 17.2821 3.01892C17.8678 3.24434 18.3613 3.54965 18.8548 4.04221C19.3061 4.48586 19.6553 5.02253 19.878 5.61485C20.0973 6.1802 20.2464 6.82452 20.2907 7.76971C20.3325 8.71577 20.3439 9.01664 20.3439 11.428C20.3439 13.8393 20.3351 14.1401 20.2907 15.0863C20.2464 16.0314 20.0973 16.6748 19.878 17.2412C19.6559 17.8337 19.3066 18.3706 18.8548 18.8138C18.411 19.2649 17.8743 19.6141 17.2821 19.8371C16.7168 20.0562 16.0725 20.2053 15.1273 20.2498C14.1812 20.2914 13.8803 20.303 11.469 20.303C9.05765 20.303 8.75679 20.2941 7.81071 20.2498C6.86552 20.2053 6.22209 20.0562 5.65587 19.8371C5.0633 19.6146 4.52654 19.2654 4.08321 18.8138C3.63184 18.3702 3.28264 17.8334 3.05993 17.2412C2.83982 16.6758 2.69161 16.0314 2.64724 15.0863C2.60552 14.1401 2.59399 13.8393 2.59399 11.428C2.59399 9.01664 2.60286 8.71577 2.64724 7.76971C2.69161 6.82363 2.83982 6.18107 3.05993 5.61485C3.28201 5.02217 3.6313 4.48535 4.08321 4.04221C4.52668 3.59067 5.0634 3.24143 5.65587 3.01892C6.22209 2.79882 6.86464 2.6506 7.81071 2.60623C8.75679 2.56452 9.05765 2.55298 11.469 2.55298ZM11.469 6.99047C10.2921 6.99047 9.16339 7.45799 8.3312 8.2902C7.49901 9.12239 7.03149 10.2511 7.03149 11.428C7.03149 12.6049 7.49901 13.7336 8.3312 14.5657C9.16339 15.3979 10.2921 15.8654 11.469 15.8654C12.6459 15.8654 13.7746 15.3979 14.6068 14.5657C15.4389 13.7336 15.9065 12.6049 15.9065 11.428C15.9065 10.2511 15.4389 9.12239 14.6068 8.2902C13.7746 7.45799 12.6459 6.99047 11.469 6.99047ZM17.2377 6.76861C17.2377 6.47437 17.1208 6.1922 16.9128 5.98416C16.7047 5.77611 16.4226 5.65922 16.1284 5.65922C15.8342 5.65922 15.552 5.77611 15.3439 5.98416C15.1358 6.1922 15.0189 6.47437 15.0189 6.76861C15.0189 7.06283 15.1358 7.345 15.3439 7.55305C15.552 7.76109 15.8342 7.87798 16.1284 7.87798C16.4226 7.87798 16.7047 7.76109 16.9128 7.55305C17.1208 7.345 17.2377 7.06283 17.2377 6.76861ZM11.469 8.76548C12.1751 8.76548 12.8524 9.04599 13.3517 9.5453C13.851 10.0446 14.1315 10.7218 14.1315 11.428C14.1315 12.1341 13.851 12.8113 13.3517 13.3106C12.8524 13.81 12.1751 14.0905 11.469 14.0905C10.7628 14.0905 10.0856 13.81 9.58632 13.3106C9.08701 12.8113 8.80648 12.1341 8.80648 11.428C8.80648 10.7218 9.08701 10.0446 9.58632 9.5453C10.0856 9.04599 10.7628 8.76548 11.469 8.76548Z" fill="#272727" fill-opacity="0.3"/>
</g>
</g>
</g>
</g>
</svg>
