<svg width="23" height="22" viewBox="0 0 23 22" fill="none" xmlns="http://www.w3.org/2000/svg">
<g id="Frame">
<path id="Vector" d="M2.95467 7.80578H6.69926V19.0745H2.95467V7.80578ZM4.85203 2.37378C3.57041 2.37378 2.73309 3.21517 2.73309 4.31953C2.73309 5.40117 3.5459 6.26702 4.80301 6.26702H4.8269C6.13303 6.26702 6.94642 5.40112 6.94642 4.31953C6.92191 3.21517 6.13307 2.37378 4.85203 2.37378ZM15.8933 7.54107C13.9056 7.54107 13.0151 8.63435 12.5184 9.40107V7.80578H8.77264C8.82223 8.86292 8.77264 19.0745 8.77264 19.0745H12.5184V12.7812C12.5184 12.4442 12.5429 12.1084 12.6414 11.8669C12.9126 11.1941 13.5289 10.4973 14.5627 10.4973C15.919 10.4973 16.4607 11.5311 16.4607 13.0453V19.0745H20.2057V12.6128C20.2057 9.15155 18.3585 7.54107 15.8933 7.54107Z" fill="#272727" fill-opacity="0.3"/>
</g>
</svg>
