<svg width="19" height="19" viewBox="0 0 19 19" fill="none" xmlns="http://www.w3.org/2000/svg">
<g id="Frame">
<path id="Vector" d="M16.5922 4.92133C16.0307 5.17052 15.4349 5.33409 14.8248 5.40658C15.4677 5.0211 15.9486 4.4151 16.1778 3.70145C15.5739 4.0604 14.913 4.3133 14.2237 4.4492C13.936 4.14164 13.5882 3.89654 13.2018 3.72914C12.8153 3.56173 12.3986 3.47559 11.9775 3.47608C10.278 3.47608 8.89985 4.85608 8.89985 6.5582C8.89985 6.7997 8.92722 7.0352 8.97972 7.26058C6.42222 7.13195 4.15422 5.90495 2.6366 4.04008C2.36287 4.51053 2.21909 5.04528 2.21997 5.58958C2.21936 6.09686 2.34396 6.59645 2.58273 7.04403C2.8215 7.4916 3.16705 7.87332 3.58872 8.15533C3.09998 8.14 2.62202 8.00781 2.19485 7.76983V7.80845C2.19457 8.51962 2.44015 9.20903 2.88997 9.75986C3.3398 10.3107 3.96622 10.6891 4.6631 10.831C4.20993 10.9543 3.73453 10.9723 3.27335 10.8835C3.66522 12.1082 4.80147 12.9992 6.14847 13.024C5.05899 13.8809 3.7126 14.3459 2.32647 14.344C2.07785 14.344 1.83297 14.329 1.59222 14.3005C2.99888 15.206 4.63678 15.6869 6.30972 15.6853C11.97 15.6853 15.066 10.9888 15.066 6.91558C15.066 6.78208 15.0626 6.64933 15.0566 6.51695C15.6593 6.08061 16.1793 5.54027 16.5922 4.92133Z" fill="#272727" fill-opacity="0.3"/>
</g>
</svg>
